<svg width="128" height="39" viewBox="0 0 128 39" fill="none" xmlns="http://www.w3.org/2000/svg">
<path d="M13.104 30H1.692V26.328H11.808L12.996 25.284V24.384L11.736 23.196H4.86L1.44 20.1V15.924L4.86 12.864H15.912V16.536H6.228L5.112 17.544V18.48L6.228 19.524H13.176L16.668 22.764V27.012L13.104 30ZM32.9015 29.964V29.1L31.9655 30H23.2535L19.5455 26.904V15.852L23.2535 12.828H31.9295L32.9015 13.548V12.828H36.6455V29.964H32.9015ZM32.9015 18.408L31.2095 16.572H24.6215L23.3255 17.616V25.176L24.5855 26.22H31.3895L32.9015 24.672V18.408ZM43.4289 30L40.2609 25.176V4.8H43.7169V23.844L45.1209 26.112H47.6409V30H43.4289ZM71.9381 30V18.768L70.2101 16.572H66.7901L64.7741 25.68H61.5701L59.5181 16.572H56.1341L54.4061 18.768V30H50.5181V17.544L54.2261 12.792H62.1821L63.1541 17.4L64.1261 12.792H72.1181L75.7901 17.544V30H71.9381ZM92.0343 29.964V29.1L91.0983 30H82.3863L78.6783 26.904V15.852L82.3863 12.828H91.0623L92.0343 13.548V12.828H95.7783V29.964H92.0343ZM92.0343 18.408L90.3423 16.572H83.7543L82.4583 17.616V25.176L83.7183 26.22H90.5223L92.0343 24.672V18.408ZM111.742 30V17.724L110.23 16.572H104.686L103.174 17.724V29.964H99.3938V12.828H103.174V14.124L104.542 12.828H111.49L115.522 15.78V30H111.742Z" fill="white"/>
<path d="M124 22L127.127 23.506L127.9 26.8901L125.736 29.6039H122.264L120.1 26.8901L120.873 23.506L124 22Z" fill="white"/>
</svg>
